<svg width="330" height="391" viewBox="0 0 330 391" fill="none" xmlns="http://www.w3.org/2000/svg">
<rect width="330" height="391" rx="10" fill="black"/>
<rect x="17" y="85" width="297" height="288" fill="#D9D9D9"/>
<rect x="17" y="13" width="297" height="60" fill="#D9D9D9"/>
<rect x="256" y="30" width="48" height="26" rx="5" fill="black"/>
<rect x="260" y="33" width="39" height="20" rx="5" fill="#414141"/>
<rect x="95" y="30" width="26" height="26" rx="13" fill="black"/>
<rect x="98" y="33" width="20" height="20" rx="10" fill="#414141"/>
<rect x="133" y="30" width="26" height="26" rx="13" fill="black"/>
<rect x="136" y="33" width="20" height="20" rx="10" fill="#414141"/>
<rect x="171" y="30" width="26" height="26" rx="13" fill="black"/>
<rect x="174" y="33" width="20" height="20" rx="10" fill="#414141"/>
<rect x="209" y="30" width="26" height="26" rx="13" fill="black"/>
<rect x="212" y="33" width="20" height="20" rx="10" fill="#414141"/>
<rect x="32" y="35" width="16" height="16" rx="8" fill="black"/>
<rect x="33.8461" y="36.8461" width="12.3077" height="12.3077" rx="6.15385" fill="#414141"/>
<rect x="56" y="35" width="16" height="16" rx="8" fill="black"/>
<rect x="57.8461" y="36.8461" width="12.3077" height="12.3077" rx="6.15385" fill="#414141"/>
<rect x="95" y="110" width="140" height="16" rx="8" fill="black"/>
<rect x="56" y="153" width="218" height="182" rx="10" fill="black"/>
<rect x="72" y="167" width="186" height="154" rx="10" fill="#ECECEC"/>
<rect x="95" y="196" width="36" height="36" rx="18" fill="black"/>
<rect x="101" y="200" width="14" height="14" rx="7" fill="white"/>
<rect x="199" y="196" width="36" height="36" rx="18" fill="black"/>
<rect x="205" y="200" width="14" height="14" rx="7" fill="white"/>
<rect x="126" y="229" width="79" height="69" rx="34.5" fill="black"/>
<rect x="126" y="229" width="79" height="38" rx="19" fill="#ECECEC"/>
<rect x="73" y="240" width="32" height="24" rx="12" fill="#FF89DC"/>
<rect x="77" y="257.789" width="18" height="3" rx="1.5" transform="rotate(-50 77 257.789)" fill="black"/>
<rect x="87" y="257.789" width="18" height="3" rx="1.5" transform="rotate(-50 87 257.789)" fill="black"/>
<rect x="225" y="240" width="32" height="24" rx="12" fill="#FF89DC"/>
<rect x="229" y="257.789" width="18" height="3" rx="1.5" transform="rotate(-50 229 257.789)" fill="black"/>
<rect x="239" y="257.789" width="18" height="3" rx="1.5" transform="rotate(-50 239 257.789)" fill="black"/>
</svg>
